<mxfile host="app.diagrams.net" agent="Mozilla/5.0 (Macintosh; Intel Mac OS X 10_15_7) AppleWebKit/537.36 (KHTML, like Gecko) Chrome/127.0.0.0 Safari/537.36" version="24.7.6">
  <diagram name="第 1 页" id="L5JrUhYKjbiMnHbrDiTu">
    <mxGraphModel dx="1358" dy="724" grid="1" gridSize="10" guides="1" tooltips="1" connect="1" arrows="1" fold="1" page="1" pageScale="1" pageWidth="827" pageHeight="1169" math="0" shadow="0">
      <root>
        <mxCell id="0" />
        <mxCell id="1" parent="0" />
        <mxCell id="E39eJLBOIZuYfnRXmOVq-3" value="" style="edgeStyle=orthogonalEdgeStyle;rounded=0;orthogonalLoop=1;jettySize=auto;html=1;entryX=0;entryY=0.5;entryDx=0;entryDy=0;" edge="1" parent="1" source="E39eJLBOIZuYfnRXmOVq-1" target="E39eJLBOIZuYfnRXmOVq-5">
          <mxGeometry relative="1" as="geometry">
            <mxPoint x="420" y="270" as="targetPoint" />
          </mxGeometry>
        </mxCell>
        <mxCell id="E39eJLBOIZuYfnRXmOVq-4" value="HTTP" style="edgeLabel;html=1;align=center;verticalAlign=middle;resizable=0;points=[];" vertex="1" connectable="0" parent="E39eJLBOIZuYfnRXmOVq-3">
          <mxGeometry x="-0.1165" y="1" relative="1" as="geometry">
            <mxPoint as="offset" />
          </mxGeometry>
        </mxCell>
        <mxCell id="E39eJLBOIZuYfnRXmOVq-1" value="&lt;div style=&quot;font-size: 16px;&quot;&gt;&lt;font style=&quot;font-size: 16px;&quot;&gt;&lt;b&gt;定制喵系统&lt;br&gt;&lt;/b&gt;&lt;/font&gt;&lt;/div&gt;&lt;div style=&quot;font-size: 16px;&quot;&gt;&lt;span style=&quot;&quot;&gt;&lt;br&gt;&lt;/span&gt;&lt;/div&gt;消费消息，推送工序配置数据到工序系统" style="rounded=0;whiteSpace=wrap;html=1;" vertex="1" parent="1">
          <mxGeometry x="350" y="120" width="170" height="320" as="geometry" />
        </mxCell>
        <mxCell id="E39eJLBOIZuYfnRXmOVq-5" value="&lt;div style=&quot;text-align: center; font-size: 16px;&quot;&gt;&lt;font style=&quot;font-size: 16px;&quot;&gt;&lt;b&gt;工序系统&lt;/b&gt;&lt;/font&gt;&lt;/div&gt;&lt;div style=&quot;text-align: center; font-size: 16px;&quot;&gt;&lt;br&gt;&lt;/div&gt;&lt;div&gt;1. 接收请求&lt;/div&gt;&lt;div&gt;2. 投递队列任务&lt;/div&gt;&lt;div&gt;3. 队列任务消费该消息&lt;/div&gt;&lt;div&gt;4. 根据数据找出工序配置&lt;/div&gt;&lt;div&gt;&lt;span style=&quot;white-space: pre;&quot;&gt;&#x9;&lt;/span&gt;3.1 能找到 - 对比时间更新数据&lt;/div&gt;&lt;div&gt;&lt;span style=&quot;white-space: pre;&quot;&gt;&#x9;&lt;/span&gt;3.2 不能找到 - 插入数据&lt;/div&gt;" style="rounded=0;whiteSpace=wrap;html=1;align=left;" vertex="1" parent="1">
          <mxGeometry x="640" y="120" width="160" height="320" as="geometry" />
        </mxCell>
        <mxCell id="E39eJLBOIZuYfnRXmOVq-8" style="edgeStyle=orthogonalEdgeStyle;rounded=0;orthogonalLoop=1;jettySize=auto;html=1;entryX=0;entryY=0.5;entryDx=0;entryDy=0;" edge="1" parent="1" source="E39eJLBOIZuYfnRXmOVq-6" target="E39eJLBOIZuYfnRXmOVq-1">
          <mxGeometry relative="1" as="geometry" />
        </mxCell>
        <mxCell id="E39eJLBOIZuYfnRXmOVq-9" value="投递队列任务" style="edgeLabel;html=1;align=center;verticalAlign=middle;resizable=0;points=[];" vertex="1" connectable="0" parent="E39eJLBOIZuYfnRXmOVq-8">
          <mxGeometry x="-0.1115" relative="1" as="geometry">
            <mxPoint as="offset" />
          </mxGeometry>
        </mxCell>
        <mxCell id="E39eJLBOIZuYfnRXmOVq-6" value="&lt;div&gt;&lt;font size=&quot;1&quot; style=&quot;&quot;&gt;&lt;b style=&quot;font-size: 16px;&quot;&gt;定制喵系统&lt;/b&gt;&lt;/font&gt;&lt;/div&gt;&lt;div&gt;&lt;br&gt;&lt;/div&gt;&lt;div&gt;监听&lt;/div&gt;定制喵工序&lt;div&gt;CRUD&lt;/div&gt;" style="rounded=0;whiteSpace=wrap;html=1;" vertex="1" parent="1">
          <mxGeometry x="40" y="120" width="160" height="320" as="geometry" />
        </mxCell>
        <mxCell id="E39eJLBOIZuYfnRXmOVq-12" value="" style="edgeStyle=orthogonalEdgeStyle;rounded=0;orthogonalLoop=1;jettySize=auto;html=1;" edge="1" parent="1" source="E39eJLBOIZuYfnRXmOVq-10" target="E39eJLBOIZuYfnRXmOVq-11">
          <mxGeometry relative="1" as="geometry" />
        </mxCell>
        <mxCell id="E39eJLBOIZuYfnRXmOVq-14" value="投递队列任务" style="edgeLabel;html=1;align=center;verticalAlign=middle;resizable=0;points=[];" vertex="1" connectable="0" parent="E39eJLBOIZuYfnRXmOVq-12">
          <mxGeometry x="-0.0728" y="-2" relative="1" as="geometry">
            <mxPoint as="offset" />
          </mxGeometry>
        </mxCell>
        <mxCell id="E39eJLBOIZuYfnRXmOVq-10" value="&lt;div&gt;&lt;div style=&quot;font-size: 16px;&quot;&gt;&lt;b&gt;工序系统&lt;/b&gt;&lt;/div&gt;&lt;div style=&quot;font-size: 16px;&quot;&gt;&lt;br&gt;&lt;/div&gt;&lt;/div&gt;&lt;div&gt;监听&lt;/div&gt;&lt;div&gt;Task 任务&lt;/div&gt;&lt;div&gt;CRUD&lt;/div&gt;" style="rounded=0;whiteSpace=wrap;html=1;" vertex="1" parent="1">
          <mxGeometry x="40" y="470" width="160" height="320" as="geometry" />
        </mxCell>
        <mxCell id="E39eJLBOIZuYfnRXmOVq-16" value="" style="edgeStyle=orthogonalEdgeStyle;rounded=0;orthogonalLoop=1;jettySize=auto;html=1;" edge="1" parent="1" source="E39eJLBOIZuYfnRXmOVq-11" target="E39eJLBOIZuYfnRXmOVq-15">
          <mxGeometry relative="1" as="geometry" />
        </mxCell>
        <mxCell id="E39eJLBOIZuYfnRXmOVq-17" value="HTTP" style="edgeLabel;html=1;align=center;verticalAlign=middle;resizable=0;points=[];" vertex="1" connectable="0" parent="E39eJLBOIZuYfnRXmOVq-16">
          <mxGeometry x="-0.0205" y="2" relative="1" as="geometry">
            <mxPoint as="offset" />
          </mxGeometry>
        </mxCell>
        <mxCell id="E39eJLBOIZuYfnRXmOVq-11" value="&lt;div&gt;&lt;div style=&quot;font-size: 16px;&quot;&gt;&lt;b&gt;工序系统&lt;/b&gt;&lt;/div&gt;&lt;div style=&quot;font-size: 16px;&quot;&gt;&lt;br&gt;&lt;/div&gt;&lt;/div&gt;消费消息，推送工序Task数据到定制喵系统" style="rounded=0;whiteSpace=wrap;html=1;" vertex="1" parent="1">
          <mxGeometry x="350" y="470" width="170" height="320" as="geometry" />
        </mxCell>
        <mxCell id="E39eJLBOIZuYfnRXmOVq-15" value="&lt;div&gt;&lt;div style=&quot;font-size: 16px;&quot;&gt;&lt;b&gt;定制喵系统&lt;/b&gt;&lt;/div&gt;&lt;/div&gt;&lt;div style=&quot;font-size: 16px;&quot;&gt;&lt;b&gt;&lt;br&gt;&lt;/b&gt;&lt;/div&gt;&lt;div style=&quot;text-align: left; font-size: 16px;&quot;&gt;&lt;div style=&quot;font-size: 12px;&quot;&gt;1. 接收请求&lt;/div&gt;&lt;div style=&quot;font-size: 12px;&quot;&gt;2. 投递队列任务&lt;/div&gt;&lt;div style=&quot;font-size: 12px;&quot;&gt;3. 队列任务消费该消息&lt;/div&gt;&lt;div style=&quot;font-size: 12px;&quot;&gt;4. 根据数据找出 Task&lt;/div&gt;&lt;div style=&quot;font-size: 12px;&quot;&gt;&lt;span style=&quot;white-space: pre;&quot;&gt;&#x9;&lt;/span&gt;3.1 能找到 - 对比时间更新数据&lt;/div&gt;&lt;div style=&quot;font-size: 12px;&quot;&gt;&lt;span style=&quot;white-space: pre;&quot;&gt;&#x9;&lt;/span&gt;3.2 不能找到 - 插入数据&lt;/div&gt;&lt;/div&gt;" style="rounded=0;whiteSpace=wrap;html=1;" vertex="1" parent="1">
          <mxGeometry x="640" y="470" width="160" height="320" as="geometry" />
        </mxCell>
      </root>
    </mxGraphModel>
  </diagram>
</mxfile>
